<?xml version="1.0" encoding="UTF-8" standalone="no" ?>
<!DOCTYPE svg PUBLIC "-//W3C//DTD SVG 1.1//EN" "http://www.w3.org/Graphics/SVG/1.1/DTD/svg11.dtd">
<svg xmlns="http://www.w3.org/2000/svg" xmlns:xlink="http://www.w3.org/1999/xlink" version="1.1" width="1080" height="1080" viewBox="0 0 1080 1080" xml:space="preserve">
<desc>Created with Fabric.js 5.2.4</desc>
<defs>
</defs>
<rect x="0" y="0" width="100%" height="100%" fill="transparent"></rect>
<g transform="matrix(1 0 0 1 540 540)" id="c214e175-f258-4a1c-a141-60470c7b4fea"  >
</g>
<g transform="matrix(1 0 0 1 540 540)" id="c90cbc24-27bc-4b32-9c2b-22c790adac0f"  >
<rect style="stroke: none; stroke-width: 1; stroke-dasharray: none; stroke-linecap: butt; stroke-dashoffset: 0; stroke-linejoin: miter; stroke-miterlimit: 4; fill: rgb(255,255,255); fill-rule: nonzero; opacity: 1; visibility: hidden;" vector-effect="non-scaling-stroke"  x="-540" y="-540" rx="0" ry="0" width="1080" height="1080" />
</g>
<g transform="matrix(0 0 0 0 0 0)"  >
<g style=""   >
</g>
</g>
<g transform="matrix(NaN NaN NaN NaN 0 0)"  >
<g style=""   >
</g>
</g>
<g transform="matrix(NaN NaN NaN NaN 0 0)"  >
<g style=""   >
</g>
</g>
<g transform="matrix(67.5 0 0 67.5 540 540)"  >
<g style=""   >
		<g transform="matrix(1 0 0 1 0 0)"  >
<path style="stroke: none; stroke-width: 1; stroke-dasharray: none; stroke-linecap: butt; stroke-dashoffset: 0; stroke-linejoin: miter; stroke-miterlimit: 4; fill: rgb(0,0,0); fill-rule: nonzero; opacity: 1;" vector-effect="non-scaling-stroke"  transform=" translate(-8, -8)" d="M 0 3.5 C 0 2.6715728752538097 0.6715728752538098 2 1.5 2 L 14.5 2 C 15.32842712474619 2 16 2.6715728752538093 16 3.4999999999999996 L 16 12.5 C 16 13.32842712474619 15.32842712474619 14 14.5 14 L 1.5 14 C 0.6715728752538098 14 0 13.32842712474619 0 12.5 L 0 3.5 z M 1.5 3 C 1.2238576250846034 3 1 3.2238576250846034 1 3.5 L 1 12.5 C 1 12.776142374915397 1.2238576250846034 13 1.5 13 L 14.5 13 C 14.776142374915397 13 15 12.776142374915397 15 12.5 L 15 3.5 C 15 3.2238576250846034 14.776142374915397 3 14.5 3 L 1.5 3 z" stroke-linecap="round" />
</g>
		<g transform="matrix(1 0 0 1 3 2)"  >
<path style="stroke: none; stroke-width: 1; stroke-dasharray: none; stroke-linecap: butt; stroke-dashoffset: 0; stroke-linejoin: miter; stroke-miterlimit: 4; fill: rgb(0,0,0); fill-rule: nonzero; opacity: 1;" vector-effect="non-scaling-stroke"  transform=" translate(-11, -10)" d="M 8 8.5 C 8 8.223857625084603 8.223857625084603 8 8.5 8 L 13.5 8 C 13.776142374915397 8 14 8.223857625084603 14 8.5 L 14 11.5 C 14 11.776142374915397 13.776142374915397 12 13.5 12 L 8.5 12 C 8.223857625084603 12 8 11.776142374915397 8 11.5 L 8 8.5 z" stroke-linecap="round" />
</g>
</g>
</g>
</svg>