<?xml version="1.0" encoding="UTF-8" standalone="no" ?>
<!DOCTYPE svg PUBLIC "-//W3C//DTD SVG 1.1//EN" "http://www.w3.org/Graphics/SVG/1.1/DTD/svg11.dtd">
<svg xmlns="http://www.w3.org/2000/svg" xmlns:xlink="http://www.w3.org/1999/xlink" version="1.1" width="1080" height="1080" viewBox="0 0 1080 1080" xml:space="preserve">
<desc>Created with Fabric.js 5.2.4</desc>
<defs>
</defs>
<rect x="0" y="0" width="100%" height="100%" fill="transparent"></rect>
<g transform="matrix(1 0 0 1 540 540)" id="c214e175-f258-4a1c-a141-60470c7b4fea"  >
</g>
<g transform="matrix(1 0 0 1 540 540)" id="c90cbc24-27bc-4b32-9c2b-22c790adac0f"  >
<rect style="stroke: none; stroke-width: 1; stroke-dasharray: none; stroke-linecap: butt; stroke-dashoffset: 0; stroke-linejoin: miter; stroke-miterlimit: 4; fill: rgb(255,255,255); fill-rule: nonzero; opacity: 1; visibility: hidden;" vector-effect="non-scaling-stroke"  x="-540" y="-540" rx="0" ry="0" width="1080" height="1080" />
</g>
<g transform="matrix(0 0 0 0 0 0)"  >
<g style=""   >
</g>
</g>
<g transform="matrix(NaN NaN NaN NaN 0 0)"  >
<g style=""   >
</g>
</g>
<g transform="matrix(NaN NaN NaN NaN 0 0)"  >
<g style=""   >
</g>
</g>
<g transform="matrix(NaN NaN NaN NaN 0 0)"  >
<g style=""   >
</g>
</g>
<g transform="matrix(78.22 0 0 78.22 513.97 599.75)"  >
<g style=""   >
		<g transform="matrix(1 0 0 1 0 0)"  >
<path style="stroke: none; stroke-width: 1; stroke-dasharray: none; stroke-linecap: butt; stroke-dashoffset: 0; stroke-linejoin: miter; stroke-miterlimit: 4; fill: rgb(0,0,0); fill-rule: evenodd; opacity: 1;" vector-effect="non-scaling-stroke"  transform=" translate(-8, -8)" d="M 8 3 C 5.780390153892212 3.0008551388181797 3.827040168757974 4.464890837363454 3.20336454280754 6.595077992004185 C 2.5796889168571058 8.725265146644917 3.4350005459722546 11.011620042136704 5.30366306503106 12.20943847164338 C 7.172325584089864 13.407256901150058 9.606966351711293 13.229771623803975 11.282153514962733 11.773606602840132 C 12.957340678214173 10.317441581876288 13.472021131792875 7.931214283033429 12.546 5.913999999999998 C 12.44403328247046 5.665886772558265 12.55602599034229 5.381517608540139 12.799796671780255 5.26956565461984 C 13.043567353218222 5.157613700699541 13.332247270540101 5.257973520328044 13.453999999999999 5.497 C 14.565178129953868 7.91778800852565 13.947366024120583 10.781348466883317 11.936924512009458 12.528648196491748 C 9.926482999898335 14.275947926100178 7.004765396919364 14.488636772132523 4.7624678827863764 13.05091869238866 C 2.520170368653389 11.613200612644796 1.4941587691372185 8.869303658595316 2.2430335218805713 6.313111564207074 C 2.991908274623924 3.7569194698188326 5.336368791726917 2.000452794778023 7.999999999999985 2 L 8 3 z" stroke-linecap="round" />
</g>
		<g transform="matrix(1 0 0 1 1.43 -5.5)"  >
<path style="stroke: none; stroke-width: 1; stroke-dasharray: none; stroke-linecap: butt; stroke-dashoffset: 0; stroke-linejoin: miter; stroke-miterlimit: 4; fill: rgb(0,0,0); fill-rule: nonzero; opacity: 1;" vector-effect="non-scaling-stroke"  transform=" translate(-9.43, -2.5)" d="M 8 4.466 L 8 0.534 C 8.00003635168961 0.4370233703777839 8.056152616680059 0.3488164424254424 8.143976407608285 0.3076892037468588 C 8.23180019853651 0.2665619650682752 8.335485591527979 0.27993494586810874 8.41 0.342 L 10.77 2.308 C 10.889999999999999 2.408 10.889999999999999 2.5919999999999996 10.77 2.6919999999999997 L 8.41 4.658 C 8.335485591527979 4.720065054131892 8.23180019853651 4.7334380349317255 8.143976407608285 4.692310796253142 C 8.056152616680059 4.651183557574558 8.00003635168961 4.5629766296222165 8 4.466 z" stroke-linecap="round" />
</g>
</g>
</g>
</svg>