<?xml version="1.0" encoding="UTF-8" standalone="no" ?>
<!DOCTYPE svg PUBLIC "-//W3C//DTD SVG 1.1//EN" "http://www.w3.org/Graphics/SVG/1.1/DTD/svg11.dtd">
<svg xmlns="http://www.w3.org/2000/svg" xmlns:xlink="http://www.w3.org/1999/xlink" version="1.1" width="1080" height="1080" viewBox="0 0 1080 1080" xml:space="preserve">
<desc>Created with Fabric.js 5.2.4</desc>
<defs>
</defs>
<g transform="matrix(1 0 0 1 540 540)" id="c214e175-f258-4a1c-a141-60470c7b4fea"  >
</g>
<g transform="matrix(1 0 0 1 540 540)" id="c90cbc24-27bc-4b32-9c2b-22c790adac0f"  >
<rect style="stroke: none; stroke-width: 1; stroke-dasharray: none; stroke-linecap: butt; stroke-dashoffset: 0; stroke-linejoin: miter; stroke-miterlimit: 4; fill: rgb(255,255,255); fill-rule: nonzero; opacity: 1; visibility: hidden;" vector-effect="non-scaling-stroke"  x="-540" y="-540" rx="0" ry="0" width="1080" height="1080" />
</g>
<g transform="matrix(0 0 0 0 0 0)"  >
<g style=""   >
</g>
</g>
<g transform="matrix(45 0 0 45 540 540)"  >
<path style="stroke: none; stroke-width: 1; stroke-dasharray: none; stroke-linecap: butt; stroke-dashoffset: 0; stroke-linejoin: miter; stroke-miterlimit: 4; fill: rgb(0,0,0); fill-rule: nonzero; opacity: 1;"  transform=" translate(-11.94, -11.94)" d="M 20.87 20.17 L 15.280000000000001 14.580000000000002 C 16.35 13.35 17 11.75 17 10 C 17 6.13 13.870000000000001 3 10 3 C 6.129999999999999 3 3 6.13 3 10 C 3 13.870000000000001 6.13 17 10 17 C 11.75 17 13.35 16.35 14.58 15.29 L 20.17 20.88 L 20.87 20.169999999999998 z M 10 16 C 6.6899999999999995 16 4 13.31 4 10 C 4 6.6899999999999995 6.6899999999999995 4 10 4 C 13.31 4 16 6.6899999999999995 16 10 C 16 13.31 13.31 16 10 16 z" stroke-linecap="round" />
</g>
</svg>