<?xml version="1.0" encoding="UTF-8" standalone="no" ?>
<!DOCTYPE svg PUBLIC "-//W3C//DTD SVG 1.1//EN" "http://www.w3.org/Graphics/SVG/1.1/DTD/svg11.dtd">
<svg xmlns="http://www.w3.org/2000/svg" xmlns:xlink="http://www.w3.org/1999/xlink" version="1.1" width="1080" height="1080" viewBox="0 0 1080 1080" xml:space="preserve">
<desc>Created with Fabric.js 5.2.4</desc>
<defs>
</defs>
<rect x="0" y="0" width="100%" height="100%" fill="transparent"></rect>
<g transform="matrix(1 0 0 1 540 540)" id="c214e175-f258-4a1c-a141-60470c7b4fea"  >
</g>
<g transform="matrix(1 0 0 1 540 540)" id="c90cbc24-27bc-4b32-9c2b-22c790adac0f"  >
<rect style="stroke: none; stroke-width: 1; stroke-dasharray: none; stroke-linecap: butt; stroke-dashoffset: 0; stroke-linejoin: miter; stroke-miterlimit: 4; fill: rgb(255,255,255); fill-rule: nonzero; opacity: 1; visibility: hidden;" vector-effect="non-scaling-stroke"  x="-540" y="-540" rx="0" ry="0" width="1080" height="1080" />
</g>
<g transform="matrix(0 0 0 0 0 0)"  >
<g style=""   >
</g>
</g>
<g transform="matrix(45 0 0 45 540 540)"  >
<path style="stroke: none; stroke-width: 1; stroke-dasharray: none; stroke-linecap: butt; stroke-dashoffset: 0; stroke-linejoin: miter; stroke-miterlimit: 4; fill: rgb(0,0,0); fill-rule: nonzero; opacity: 1;"  transform=" translate(-12, -12)" d="M 12 9.5 C 13.379999999999999 9.5 14.5 10.620000000000001 14.5 12 C 14.5 13.379999999999999 13.379999999999999 14.5 12 14.5 C 10.620000000000001 14.5 9.5 13.379999999999999 9.5 12 C 9.5 10.620000000000001 10.620000000000001 9.5 12 9.5 M 12 8.5 C 10.07 8.5 8.5 10.07 8.5 12 C 8.5 13.93 10.07 15.5 12 15.5 C 13.93 15.5 15.5 13.93 15.5 12 C 15.5 10.07 13.93 8.5 12 8.5 z M 13.22 3 L 13.770000000000001 5.2 L 13.900000000000002 5.71 L 14.400000000000002 5.89 C 15.010000000000002 6.12 15.590000000000002 6.449999999999999 16.12 6.869999999999999 L 16.52 7.1899999999999995 L 17.02 7.05 L 19.189999999999998 6.43 L 20.409999999999997 8.54 L 18.779999999999998 10.129999999999999 L 18.409999999999997 10.489999999999998 L 18.489999999999995 10.999999999999998 C 18.539999999999996 11.319999999999999 18.569999999999993 11.639999999999999 18.569999999999993 11.979999999999999 C 18.569999999999993 12.319999999999999 18.539999999999992 12.639999999999999 18.489999999999995 12.959999999999999 L 18.409999999999997 13.469999999999999 L 18.779999999999998 13.829999999999998 L 20.409999999999997 15.419999999999998 L 19.189999999999998 17.529999999999998 L 17.019999999999996 16.909999999999997 L 16.519999999999996 16.769999999999996 L 16.119999999999997 17.089999999999996 C 15.589999999999998 17.519999999999996 15.009999999999998 17.849999999999998 14.399999999999997 18.069999999999997 L 13.899999999999997 18.249999999999996 L 13.769999999999996 18.759999999999998 L 13.219999999999995 21 L 10.779999999999996 21 L 10.229999999999995 18.8 L 10.099999999999994 18.29 L 9.599999999999994 18.11 C 8.999999999999995 17.88 8.419999999999995 17.55 7.879999999999995 17.12 L 7.479999999999994 16.8 L 6.979999999999994 16.94 L 4.809999999999994 17.560000000000002 L 3.5999999999999943 15.440000000000001 L 5.229999999999994 13.850000000000001 L 5.599999999999994 13.490000000000002 L 5.519999999999994 12.980000000000002 C 5.469999999999994 12.660000000000002 5.439999999999994 12.330000000000002 5.439999999999994 12.000000000000002 C 5.439999999999994 11.670000000000002 5.469999999999994 11.340000000000002 5.519999999999994 11.020000000000001 L 5.599999999999994 10.510000000000002 L 5.229999999999994 10.150000000000002 L 3.6 8.56 L 4.82 6.450000000000001 L 6.99 7.070000000000001 L 7.49 7.210000000000001 L 7.890000000000001 6.890000000000001 C 8.42 6.45 9 6.120000000000001 9.610000000000001 5.9 L 10.110000000000001 5.720000000000001 L 10.240000000000002 5.210000000000001 L 10.780000000000001 3.000000000000001 L 13.22 3.000000000000001 M 14 2 L 10 2 L 9.26 4.96 C 8.53 5.23 7.859999999999999 5.62 7.26 6.1 L 4.34 5.27 L 2.34 8.73 L 4.529999999999999 10.86 C 4.47 11.229999999999999 4.4399999999999995 11.61 4.4399999999999995 12 C 4.4399999999999995 12.39 4.47 12.77 4.529999999999999 13.14 L 2.3399999999999994 15.27 L 4.34 18.73 L 7.26 17.900000000000002 C 7.859999999999999 18.380000000000003 8.53 18.770000000000003 9.26 19.040000000000003 L 10 22 L 14 22 L 14.74 19.04 C 15.47 18.77 16.14 18.38 16.740000000000002 17.9 L 19.660000000000004 18.729999999999997 L 21.660000000000004 15.269999999999996 L 19.470000000000002 13.139999999999997 C 19.53 12.769999999999998 19.560000000000002 12.389999999999997 19.560000000000002 11.999999999999996 C 19.560000000000002 11.609999999999996 19.53 11.229999999999997 19.470000000000002 10.859999999999996 L 21.660000000000004 8.729999999999997 L 19.660000000000004 5.269999999999997 L 16.740000000000002 6.099999999999997 C 16.14 5.619999999999997 15.470000000000002 5.229999999999997 14.740000000000002 4.959999999999997 L 14 2 z" stroke-linecap="round" />
</g>
</svg>